<svg width="36" height="33" viewBox="0 0 36 33" fill="none" xmlns="http://www.w3.org/2000/svg">
<path d="M17.1066 0.776247C17.4758 0.0420117 18.524 0.0420104 18.8933 0.776246L23.3936 9.72392C23.5405 10.0161 23.8211 10.218 24.1449 10.2645L34.1789 11.7038C35.0047 11.8223 35.3309 12.8401 34.7279 13.4166L27.4931 20.3324C27.2519 20.563 27.1416 20.8987 27.199 21.2274L28.9095 31.0151C29.0518 31.8295 28.2005 32.455 27.4658 32.0758L18.4586 27.427C18.1708 27.2785 17.829 27.2785 17.5413 27.427L8.53409 32.0758C7.79938 32.455 6.94805 31.8295 7.09038 31.0151L8.80086 21.2274C8.8583 20.8987 8.748 20.563 8.50678 20.3324L1.27195 13.4166C0.668939 12.8401 0.995201 11.8223 1.82094 11.7038L11.8549 10.2645C12.1787 10.218 12.4593 10.0161 12.6063 9.72392L17.1066 0.776247Z" fill="#808080"/>
</svg>
