<svg width="34" height="30" viewBox="0 0 34 30" fill="none" xmlns="http://www.w3.org/2000/svg">
<path d="M13.3934 28.1987V20.1924C13.3934 19.6401 13.8411 19.1924 14.3934 19.1924H19.5985C20.1508 19.1924 20.5985 19.6401 20.5985 20.1924V28.1987C20.5985 29.1894 21.409 30 22.3997 30H27.8035C28.7942 30 29.6048 29.1894 29.6048 28.1987V16.5899C29.6048 16.0376 30.0525 15.5899 30.6048 15.5899H32.6669C33.4955 15.5899 33.8918 14.5632 33.2613 14.0228L18.2028 0.459321C17.5183 -0.153107 16.4736 -0.153107 15.7891 0.459321L0.730568 14.0228C0.118139 14.5632 0.496404 15.5899 1.32498 15.5899H3.38713C3.93941 15.5899 4.38713 16.0376 4.38713 16.5899V28.1987C4.38713 29.1894 5.19769 30 6.18839 30H11.5922C12.5829 30 13.3934 29.1894 13.3934 28.1987Z" fill="#808080"/>
</svg>
