<svg width="30" height="30" viewBox="0 0 30 30" fill="none" xmlns="http://www.w3.org/2000/svg">
<path d="M4.28571 0C3.14907 0 2.05898 0.451529 1.25526 1.25526C0.451529 2.05898 0 3.14907 0 4.28571V8.57143C0 9.70807 0.451529 10.7982 1.25526 11.6019C2.05898 12.4056 3.14907 12.8571 4.28571 12.8571H8.57143C9.70807 12.8571 10.7982 12.4056 11.6019 11.6019C12.4056 10.7982 12.8571 9.70807 12.8571 8.57143V4.28571C12.8571 3.14907 12.4056 2.05898 11.6019 1.25526C10.7982 0.451529 9.70807 0 8.57143 0H4.28571ZM4.28571 17.1429C3.14907 17.1429 2.05898 17.5944 1.25526 18.3981C0.451529 19.2018 0 20.2919 0 21.4286V25.7143C0 26.8509 0.451529 27.941 1.25526 28.7447C2.05898 29.5485 3.14907 30 4.28571 30H8.57143C9.70807 30 10.7982 29.5485 11.6019 28.7447C12.4056 27.941 12.8571 26.8509 12.8571 25.7143V21.4286C12.8571 20.2919 12.4056 19.2018 11.6019 18.3981C10.7982 17.5944 9.70807 17.1429 8.57143 17.1429H4.28571ZM17.1429 4.28571C17.1429 3.14907 17.5944 2.05898 18.3981 1.25526C19.2018 0.451529 20.2919 0 21.4286 0H25.7143C26.8509 0 27.941 0.451529 28.7447 1.25526C29.5485 2.05898 30 3.14907 30 4.28571V8.57143C30 9.70807 29.5485 10.7982 28.7447 11.6019C27.941 12.4056 26.8509 12.8571 25.7143 12.8571H21.4286C20.2919 12.8571 19.2018 12.4056 18.3981 11.6019C17.5944 10.7982 17.1429 9.70807 17.1429 8.57143V4.28571ZM17.1429 21.4286C17.1429 20.2919 17.5944 19.2018 18.3981 18.3981C19.2018 17.5944 20.2919 17.1429 21.4286 17.1429H25.7143C26.8509 17.1429 27.941 17.5944 28.7447 18.3981C29.5485 19.2018 30 20.2919 30 21.4286V25.7143C30 26.8509 29.5485 27.941 28.7447 28.7447C27.941 29.5485 26.8509 30 25.7143 30H21.4286C20.2919 30 19.2018 29.5485 18.3981 28.7447C17.5944 27.941 17.1429 26.8509 17.1429 25.7143V21.4286Z" fill="white"/>
</svg>
