<svg width="36" height="36" viewBox="0 0 36 36" fill="none" xmlns="http://www.w3.org/2000/svg">
<path d="M29.3355 11.3356C29.3355 8.32919 28.1412 5.44594 26.0154 3.32011C23.8896 1.19428 21.0063 0 17.9999 0C14.9936 0 12.1103 1.19428 9.98448 3.32011C7.85864 5.44594 6.66436 8.32919 6.66436 11.3356C6.66436 24.5604 0.996582 28.3389 0.996582 28.3389H35.0033C35.0033 28.3389 29.3355 24.5604 29.3355 11.3356Z" fill="#808080"/>
<path d="M21.2676 32.1174C20.9354 32.69 20.4587 33.1653 19.885 33.4957C19.3114 33.8261 18.6611 34 17.9991 34C17.3372 34 16.6868 33.8261 16.1132 33.4957C15.5396 33.1653 15.0629 32.69 14.7307 32.1174" stroke="#808080" stroke-width="3" stroke-linecap="round" stroke-linejoin="round"/>
</svg>
