<svg width="36" height="36" viewBox="0 0 36 36" fill="none" xmlns="http://www.w3.org/2000/svg">
<path d="M33.1673 20.8362C32.2994 20.1725 31.8788 19.0926 31.8788 18C31.8788 16.9127 32.288 15.8255 33.1548 15.1693L35.6569 13.275C36.0039 13.0125 36.1002 12.5062 35.8882 12.1312L32.1872 5.90625C31.9559 5.49375 31.474 5.3625 31.0499 5.49375L28.0783 6.65479C27.0605 7.05246 25.9308 6.87903 24.9831 6.33493C23.9959 5.76811 23.219 4.8367 23.0549 3.71021L22.6263 0.76875C22.5492 0.31875 22.1636 0 21.701 0H14.299C13.8364 0 13.4701 0.31875 13.393 0.76875L12.9649 3.70716C12.8005 4.83554 12.014 5.77445 11.0259 6.34376C10.0806 6.8885 8.96047 7.05312 7.9442 6.65605L4.96937 5.49375C4.5453 5.34375 4.0634 5.49375 3.83208 5.90625L0.150354 12.1312C-0.0809589 12.525 -0.00385476 13.0125 0.381667 13.275L2.88106 15.1672C3.74954 15.8248 4.12123 16.9107 4.12123 18C4.12123 19.0872 3.71203 20.1744 2.84521 20.8307L0.343115 22.725C-0.00385473 22.9875 -0.100235 23.4937 0.111802 23.8687L3.81281 30.0938C4.04412 30.5063 4.52602 30.6375 4.9501 30.5062L7.92169 29.3452C8.93951 28.9475 10.0692 29.121 11.0169 29.6651C12.0041 30.2319 12.781 31.1633 12.9451 32.2898L13.3737 35.2313C13.4701 35.6812 13.8364 36 14.299 36H21.701C22.1636 36 22.5492 35.6812 22.607 35.2313L23.037 32.28C23.2003 31.1595 23.9789 30.2313 24.9623 29.6701C25.9158 29.1261 27.0464 28.9496 28.0689 29.3491L31.0306 30.5062C31.4547 30.6562 31.9366 30.5063 32.1679 30.0938L35.8689 23.8687C36.1002 23.4562 36.0039 22.9875 35.6376 22.725L33.1673 20.8362ZM18 24.75C14.1833 24.75 11.0606 21.7125 11.0606 18C11.0606 14.2875 14.1833 11.25 18 11.25C21.8167 11.25 24.9394 14.2875 24.9394 18C24.9394 21.7125 21.8167 24.75 18 24.75Z" fill="#808080"/>
</svg>
